<svg xmlns="http://www.w3.org/2000/svg" width="323" height="32" viewBox="0 0 323 32">
  <title>
    Dart for the web (logo)
  </title>
  <g fill="none" fill-rule="evenodd">
    <g fill-rule="nonzero">
      <path fill="#FFF" d="M58.88 8.47c2.5 2.3 3.75 5.43 3.75 9.52 0 4.07-1.22 7.3-3.66 9.7-2.44 2.37-6.17 3.57-11.18 3.57h-8.83V5.12h9.12c4.68 0 8.27 1.06 10.78 3.35zM54.58 24c1.43-1.35 2.15-3.32 2.15-5.9 0-2.58-.72-4.6-2.16-6-1.44-1.4-3.65-2.12-6.63-2.12h-3.37v16.06h3.82c2.67 0 4.73-.7 6.17-2.04zM83.43 31.27H78.2v-2.5c-1.5 1.82-3.24 2.74-5.38 2.74-2.14 0-3.93-.6-5.38-1.85-1.46-1.24-2.18-2.9-2.18-4.96 0-2.08.75-3.6 2.26-4.62 1.5-1.03 3.56-1.5 6.16-1.5h4.14v-.2c0-2.14-1.1-3.22-3.38-3.22-.98 0-2 .2-3.08.58-1.1.4-2 .87-2.76 1.45l-2.5-3.65c2.64-1.93 5.68-2.9 9.1-2.9 2.44 0 4.4.62 5.95 1.84 1.55 1.22 2.28 3.16 2.28 5.82v12.95zm-5.6-7.77v-.82h-3.5c-2.26 0-3.4.62-3.4 2.03 0 .73.28 1.25.82 1.64.54.4 1.3.57 2.3.57 1 0 1.88-.3 2.64-.92.76-.62 1.13-1.45 1.13-2.48zM98.3 15.95c-1.7 0-3.02.6-3.84 1.8-.83 1.18-1.32 2.75-1.32 4.7v8.82h-5.6V11.1h5.6v2.56c.75-.83 1.76-1.53 2.85-2.1 1.08-.58 2.37-.88 3.5-.9v5.3h-1.2zM108.45 15.2v8.9c0 .78.23 1.4.63 1.83.4.44.9.66 1.44.66 1.06 0 1.95-.5 2.68-1.44l2.1 3.94c-1.75 1.6-3.6 2.4-5.53 2.4-1.95 0-3.58-.63-4.92-1.9-1.34-1.3-2-3.03-2-5.23V5.12h5.6v5.6h5.97l-3.08 4.48h-2.9z"/>
      <path fill="#00C4B3" d="M8.53 9.2L6.57 7.24V21.4l.03.67c0 .3.07.66.16 1.03l15.53 5.47 3.87-1.72L8.53 9.2z"/>
      <path fill="#22D3C5" d="M6.76 23.1v-.02.02zm19.4 3.75l-3.87 1.72L6.75 23.1c.3 1.14.96 2.42 1.66 3.1l5.07 5.05 11.26.02 1.4-4.42z"/>
      <path fill="#0075C9" d="M6.62 7.24L.58 16.36c-.5.54-.25 1.64.56 2.45l3.5 3.52 2.18.78c-.1-.37-.16-.72-.17-1.03l-.02-.66V7.25z"/>
      <path fill="#0075C9" d="M22.42 7.42c-.37-.1-.72-.15-1.03-.16l-.7-.02H6.56l19.6 19.6 1.73-3.88-5.48-15.54z"/>
      <path fill="#00A8E1" d="M22.4 7.42h0zm3.13 1.67c-.7-.73-1.97-1.38-3.1-1.67l5.47 15.53-1.72 3.9 4.2-1.36V13.97L25.54 9.1z"/>
      <path fill="#00C4B3" d="M21.65 5.25l-3.5-3.5c-.82-.8-1.93-1.04-2.46-.54L6.55 7.25H20.7l.7.02c.3 0 .65.07 1.02.16l-.77-2.17z"/>
    </g>
    <path fill="#22D3C5" d="M134.86 9.18c-.43.4-.64.95-.64 1.7v1.62h4.57v3.85h-4.58V31h-5.5V16.35h-2.6V12.5h2.6v-1.84c0-1.4.3-2.6.94-3.58.64-1 1.5-1.75 2.58-2.27 1.08-.5 2.28-.76 3.6-.76 1.24 0 2.52.26 3.8.8l-.82 4.3c-.36-.14-.74-.26-1.15-.37-.4-.1-.8-.16-1.15-.16-.67 0-1.22.2-1.66.58zm20.5 3.5c1.56.8 2.78 1.96 3.64 3.45.87 1.5 1.3 3.22 1.3 5.2 0 1.93-.43 3.65-1.3 5.15-.86 1.5-2.08 2.67-3.65 3.5-1.57.82-3.38 1.24-5.42 1.24-2.06 0-3.88-.42-5.45-1.25-1.57-.82-2.8-2-3.66-3.5-.86-1.5-1.3-3.2-1.3-5.15 0-1.97.44-3.7 1.3-5.2.87-1.48 2.1-2.63 3.66-3.44 1.57-.82 3.4-1.23 5.45-1.23 2.04 0 3.85.4 5.42 1.23zm-8.94 4.86c-.9.98-1.35 2.26-1.35 3.85 0 1.57.45 2.86 1.35 3.84.9.98 2.07 1.48 3.5 1.48 1.43 0 2.6-.5 3.5-1.48.9-.98 1.34-2.27 1.34-3.85 0-1.6-.45-2.88-1.35-3.86-.9-1-2.05-1.48-3.47-1.48-1.44 0-2.6.5-3.5 1.48zm24.72-5.15c1.08-.64 2.34-.96 3.78-.98v5.22c-.2-.03-.48-.04-.86-.04-1.7 0-3.05.46-4.05 1.4-1 .9-1.48 2.14-1.48 3.68V31h-5.55V11.63h5.55v3.5c.67-1.2 1.54-2.12 2.62-2.74zm25.22 17.52c-.72.43-1.52.76-2.4 1-.87.22-1.75.33-2.64.33-1.8 0-3.26-.5-4.4-1.55-1.12-1.03-1.68-2.5-1.68-4.42V16.3h-2.7v-3.8h2.7V7.17h5.5v5.33H196v3.85h-5.26v8c0 1.48.6 2.22 1.77 2.22.82 0 1.72-.24 2.7-.72l1.16 4.07zm19.97-16.5c1.28 1.36 1.93 3.16 1.93 5.4V31h-5.55V20.45c0-1.22-.33-2.2-1-2.9-.7-.7-1.63-1.06-2.8-1.06-1.37.02-2.46.5-3.26 1.4-.8.94-1.2 2.12-1.2 3.56V31h-5.55V4.3h5.53v10.75c1.35-2.37 3.58-3.6 6.7-3.63 2.18 0 3.92.67 5.2 2zm21.1.73c1.62 1.8 2.43 4.3 2.43 7.53 0 .57 0 1.02-.03 1.33h-13.9c.3 1.23.9 2.2 1.8 2.87.9.68 1.96 1.03 3.2 1.03.92 0 1.8-.18 2.63-.53.84-.34 1.6-.85 2.27-1.53l2.92 2.96c-1 1.1-2.18 1.95-3.58 2.53-1.4.6-2.97.9-4.7.9-2.04 0-3.82-.42-5.35-1.24-1.52-.82-2.7-1.98-3.53-3.46-.83-1.5-1.25-3.2-1.25-5.15 0-1.98.42-3.7 1.26-5.2.85-1.5 2.03-2.68 3.54-3.5 1.5-.83 3.24-1.25 5.18-1.25 3.12 0 5.5.9 7.1 2.7zm-2.8 5.58c-.03-1.27-.44-2.3-1.2-3.06-.78-.77-1.8-1.15-3.07-1.15-1.2 0-2.2.38-3 1.13-.8.76-1.32 1.8-1.54 3.08h8.82zm12.52-8.06l5.65-.04 4.32 13.86 4.18-13.87h5.44l4.24 13.86 4.25-13.87h5.47L273.65 31h-5.55l-4.17-12.78L259.8 31h-5.56l-7.1-19.33zm50.78 2.48c1.62 1.8 2.43 4.3 2.43 7.53 0 .57 0 1.02-.04 1.33h-13.9c.32 1.23.92 2.2 1.8 2.87.9.68 1.96 1.03 3.2 1.03.92 0 1.8-.18 2.64-.53.84-.34 1.6-.85 2.27-1.53l2.9 2.96c-.97 1.1-2.16 1.95-3.57 2.53-1.4.6-2.97.9-4.7.9-2.04 0-3.82-.42-5.34-1.24-1.53-.82-2.7-1.98-3.53-3.46-.84-1.5-1.25-3.2-1.25-5.15 0-1.98.42-3.7 1.26-5.2.85-1.5 2.02-2.68 3.54-3.5 1.5-.83 3.24-1.25 5.18-1.25 3.12 0 5.5.9 7.1 2.7zm-2.8 5.58c-.04-1.27-.45-2.3-1.2-3.06-.78-.77-1.8-1.15-3.07-1.15-1.2 0-2.2.38-3 1.13-.8.76-1.32 1.8-1.54 3.08h8.82zm23.48-7.04c1.4.82 2.46 2 3.2 3.5.77 1.52 1.15 3.26 1.15 5.22 0 1.95-.37 3.66-1.12 5.13-.74 1.48-1.8 2.63-3.15 3.44-1.35.8-2.93 1.22-4.73 1.22-1.35 0-2.54-.26-3.58-.78-1.05-.5-1.93-1.26-2.65-2.25V31h-5.54V4.3h5.54v10.18c.7-1 1.57-1.74 2.6-2.25 1.05-.52 2.22-.78 3.52-.78 1.8 0 3.4.42 4.77 1.24zM316 25.1c.9-.98 1.33-2.27 1.33-3.86 0-1.56-.44-2.83-1.33-3.83-.9-1-2.04-1.48-3.46-1.48-1.4 0-2.57.5-3.47 1.5-.9 1-1.35 2.26-1.35 3.82 0 1.6.45 2.9 1.35 3.9.9.98 2.06 1.47 3.47 1.47 1.42 0 2.57-.5 3.46-1.5z"/>
  </g>
</svg>
