<?xml version="1.0" encoding="utf-8"?>
<!-- Generator: Adobe Illustrator 19.0.1, SVG Export Plug-In . SVG Version: 6.00 Build 0)  -->
<!DOCTYPE svg PUBLIC "-//W3C//DTD SVG 1.1//EN" "http://www.w3.org/Graphics/SVG/1.1/DTD/svg11.dtd">
<svg version="1.1" id="Layer_1" xmlns="http://www.w3.org/2000/svg" xmlns:xlink="http://www.w3.org/1999/xlink" x="0px" y="0px"
	 viewBox="0 0 276.6 41.4" style="enable-background:new 0 0 276.6 41.4;" xml:space="preserve">
<style type="text/css">
	.st0{fill:#00C4B3;}
	.st1{fill:#22D3C5;}
	.st2{fill:#0075C9;}
	.st3{fill:#00A8E1;}
</style>
<g>
	<g>
		<path d="M62.9,13.5c2.5,2.3,3.8,5.4,3.8,9.5c0,4.1-1.2,7.3-3.7,9.7c-2.4,2.4-6.2,3.6-11.2,3.6H43V10.1h9.1
			C56.8,10.1,60.4,11.2,62.9,13.5z M58.6,29c1.4-1.4,2.2-3.3,2.2-5.9c0-2.6-0.7-4.6-2.2-6c-1.4-1.4-3.7-2.1-6.6-2.1h-3.4V31h3.8
			C55.1,31,57.1,30.4,58.6,29z"/>
	</g>
	<g>
		<path d="M87.4,36.3h-5.2v-2.5c-1.5,1.8-3.2,2.7-5.4,2.7c-2.1,0-3.9-0.6-5.4-1.9c-1.5-1.2-2.2-2.9-2.2-5c0-2.1,0.8-3.6,2.3-4.6
			c1.5-1,3.6-1.5,6.2-1.5h4.1v-0.2c0-2.2-1.1-3.2-3.4-3.2c-1,0-2,0.2-3.1,0.6c-1.1,0.4-2,0.9-2.8,1.4l-2.5-3.6
			c2.7-1.9,5.7-2.9,9.1-2.9c2.5,0,4.4,0.6,6,1.8c1.6,1.2,2.3,3.2,2.3,5.8L87.4,36.3L87.4,36.3z M81.8,28.5v-0.8h-3.5
			c-2.3,0-3.4,0.6-3.4,2c0,0.7,0.3,1.2,0.8,1.6c0.5,0.4,1.3,0.6,2.3,0.6c1,0,1.9-0.3,2.6-0.9C81.5,30.4,81.8,29.5,81.8,28.5z"/>
	</g>
	<g>
		<path d="M102.3,21c-1.7,0-3,0.6-3.8,1.8c-0.8,1.2-1.3,2.8-1.3,4.7v8.8h-5.6V16.1h5.6v2.6c0.7-0.8,1.8-1.5,2.9-2.1
			c1.1-0.6,2.4-0.9,3.5-0.9V21L102.3,21L102.3,21z"/>
	</g>
	<g>
		<path d="M112.5,20.2v8.9c0,0.8,0.2,1.4,0.6,1.8c0.4,0.4,0.9,0.7,1.4,0.7c1.1,0,1.9-0.5,2.7-1.4l2.1,3.9c-1.8,1.6-3.6,2.4-5.5,2.4
			c-1.9,0-3.6-0.6-4.9-1.9c-1.3-1.3-2-3-2-5.2V10.1h5.6v5.6h6l-3.1,4.5L112.5,20.2L112.5,20.2z"/>
	</g>
	<g>
		<path class="st0" d="M12.5,14.2l-2-2l0,14.2l0,0.7c0,0.3,0.1,0.7,0.2,1l15.5,5.5l3.9-1.7l0,0L12.5,14.2z"/>
	</g>
	<g>
		<path class="st1" d="M10.8,28.1L10.8,28.1C10.8,28.1,10.8,28.1,10.8,28.1C10.8,28.1,10.8,28.1,10.8,28.1z M30.2,31.9l-3.9,1.7
			l-15.5-5.5c0.3,1.1,1,2.4,1.7,3.1l5.1,5l11.3,0L30.2,31.9L30.2,31.9z"/>
	</g>
	<g>
		<path class="st2" d="M10.6,12.2l-6,9.1c-0.5,0.5-0.3,1.6,0.6,2.5l3.5,3.5l2.2,0.8c-0.1-0.4-0.2-0.7-0.2-1l0-0.7L10.6,12.2
			L10.6,12.2z"/>
	</g>
	<g>
		<path class="st2" d="M26.4,12.4c-0.4-0.1-0.7-0.2-1-0.2l-0.7,0l-14.1,0l19.6,19.6h0l1.7-3.9L26.4,12.4z"/>
	</g>
	<g>
		<path class="st3" d="M26.4,12.4C26.4,12.4,26.4,12.4,26.4,12.4L26.4,12.4C26.4,12.4,26.4,12.4,26.4,12.4z M29.5,14.1
			c-0.7-0.7-2-1.4-3.1-1.7L31.9,28l-1.7,3.9h0l4.2-1.3l0-11.5L29.5,14.1z"/>
	</g>
	<g>
		<path class="st0" d="M25.6,10.2l-3.5-3.5c-0.8-0.8-1.9-1.1-2.5-0.6l-9.1,6l14.1,0l0.7,0c0.3,0,0.7,0.1,1,0.2L25.6,10.2z"/>
	</g>
</g>
<g>
	<path class="st1" d="M136.1,36.3h-5.8l-6.9-20.2h5.8l3.9,12.2l3.9-12.2h5.4l3.9,12.2l3.9-12.2h5.9l-6.9,20.2h-5.9l-3.7-11
		L136.1,36.3z"/>
	<path class="st1" d="M175.6,33.4c-2.3,2.2-4.9,3.2-8,3.2s-5.6-0.9-7.6-2.8c-2-1.9-3-4.4-3-7.6c0-3.2,1-5.7,3.1-7.6
		c2-1.9,4.4-2.8,7.2-2.8s5.1,0.8,7.1,2.5c1.9,1.7,2.9,4,2.9,6.9v3h-14.7c0.2,1.1,0.8,2,1.7,2.7s2.1,1.1,3.3,1.1c2,0,3.6-0.7,4.9-2
		L175.6,33.4z M170.2,21.4c-0.8-0.7-1.7-1-2.8-1c-1.1,0-2.1,0.3-3.1,1c-0.9,0.7-1.5,1.6-1.6,2.7h8.9C171.5,23,171,22,170.2,21.4z"/>
	<path class="st1" d="M192.5,15.8c2.5,0,4.6,1,6.4,2.9c1.8,1.9,2.7,4.4,2.7,7.4c0,3-0.9,5.5-2.8,7.5c-1.9,2-4,3-6.4,3
		c-2.4,0-4.4-1-5.9-3v2.7h-5.6l0-27.8h5.6v9.9C188,16.6,190,15.8,192.5,15.8z M186.4,26.2c0,1.6,0.5,3,1.4,4c0.9,1,2,1.6,3.3,1.6
		s2.4-0.5,3.4-1.6c1-1,1.5-2.4,1.5-4c0-1.6-0.5-3-1.4-4.1c-1-1.1-2.1-1.7-3.4-1.7c-1.3,0-2.4,0.5-3.4,1.6
		C186.8,23.2,186.4,24.6,186.4,26.2z"/>
	<path class="st1" d="M213.3,36.6c-2.4,0-4.5-1-6.4-3c-1.9-2-2.8-4.5-2.8-7.5c0-3,0.9-5.5,2.7-7.4s4-2.9,6.4-2.9
		c2.5,0,4.5,0.9,6,2.6V8.4h5.6l0,27.8h-5.6v-2.7C217.7,35.6,215.7,36.6,213.3,36.6z M209.8,26.2c0,1.6,0.5,3,1.5,4
		c1,1,2.1,1.6,3.4,1.6c1.3,0,2.4-0.5,3.3-1.6c0.9-1,1.4-2.4,1.4-4c0-1.6-0.5-3-1.4-4.1c-0.9-1.1-2-1.6-3.4-1.6s-2.5,0.6-3.4,1.7
		C210.2,23.2,209.8,24.6,209.8,26.2z"/>
	<path class="st1" d="M247.1,33.4c-2.3,2.2-4.9,3.2-8,3.2s-5.6-0.9-7.6-2.8c-2-1.9-3-4.4-3-7.6c0-3.2,1-5.7,3.1-7.6
		c2-1.9,4.4-2.8,7.2-2.8s5.1,0.8,7.1,2.5c1.9,1.7,2.9,4,2.9,6.9v3H234c0.2,1.1,0.8,2,1.7,2.7s2.1,1.1,3.3,1.1c2,0,3.6-0.7,4.9-2
		L247.1,33.4z M241.7,21.4c-0.8-0.7-1.7-1-2.8-1c-1.1,0-2.1,0.3-3.1,1c-0.9,0.7-1.5,1.6-1.6,2.7h8.9C242.9,23,242.4,22,241.7,21.4z"
		/>
	<path class="st1" d="M257,36.3l-8-20.2h5.9l5,12.7l5-12.7h5.9l-8,20.2H257z"/>
</g>
</svg>
