<svg xmlns="http://www.w3.org/2000/svg" width="328" height="32" viewBox="0 0 328 32">
  <g fill="none" fill-rule="evenodd">
    <g fill-rule="nonzero">
      <path fill="#000" d="M59 8.5c2.4 2.3 3.7 5.4 3.7 9.5 0 4-1.2 7.3-3.7 9.7-2.4 2.4-6.2 3.6-11.2 3.6H39V5h9c4.8 0 8.4 1.2 11 3.5zM54.5 24c1.4-1.4 2.2-3.3 2.2-6 0-2.5-.7-4.5-2.2-6-1.4-1.3-3.7-2-6.6-2h-3.4v16h3.8c2.7 0 4.7-.6 6.2-2zM83.4 31.3h-5.2v-2.5c-1.5 1.8-3.2 2.7-5.4 2.7-2 0-4-.6-5.4-2-1.5-1-2.2-2.8-2.2-5 0-2 .8-3.5 2.3-4.5 1.5-1 3.6-1.5 6.2-1.5h4v-.2c0-2.2-1-3.2-3.3-3.2-1 0-2 .3-3 .7-1.2.4-2 1-3 1.4L66 13.6c2.7-2 5.7-3 9-3 2.6 0 4.5.7 6 2 1.7 1 2.4 3 2.4 5.7v13zm-5.6-7.8v-.8h-3.5c-2.3 0-3.4.6-3.4 2 0 .7.2 1.2.7 1.6.5.4 1.3.6 2.3.6 1 0 2-.4 2.6-1 1-.6 1.2-1.5 1.2-2.5zM98.3 16c-1.7 0-3 .6-3.8 1.8-.8 1.2-1.3 2.8-1.3 4.7v8.8h-5.6V11h5.6v2.7c.7-.8 1.8-1.5 3-2 1-.7 2.3-1 3.4-1V16h-1.3zM108.5 15.2v9c0 .7.2 1.3.6 1.7.5.3 1 .6 1.5.6 1 0 2-.5 2.7-1.4l2 4c-1.7 1.5-3.5 2.3-5.4 2.3-2 0-3.6-.6-5-2-1.2-1.2-2-3-2-5V5h5.7v5.7h6l-3 4.5h-3z"/>
      <path fill="#00C4B3" d="M8.5 9.2l-2-2V22c0 .4 0 .8.2 1l15.5 5.6 4-1.7L8.4 9z"/>
      <path fill="#22D3C5" d="M26.2 27l-4 1.6L7 23c.3 1.2 1 2.5 1.7 3.2l5 5H25L26 27z"/>
      <path fill="#0075C9" d="M6.6 7.2l-6 9C0 17 .3 18 1.2 19l3.5 3.5L7 23c-.2-.3-.3-.6-.3-1V7.3zM22.4 7.4l-1-.2H6.7L26 26.8l1.7-4-5.6-15.4z"/>
      <path fill="#00A8E1" d="M25.5 9c-.7-.6-2-1.3-3-1.6L27.8 23 26 27l4.2-1.4V14l-5-5z"/>
      <path fill="#00C4B3" d="M21.6 5.2L18 1.7c-.7-.8-1.8-1-2.4-.6l-9 6h14.7l1 .3-.7-2z"/>
    </g>
    <path fill="#22D3C5" d="M135 9.2c-.6.4-.8 1-.8 1.7v1.5h4.6v3.8h-4.6V31h-5.5V16.3H126v-3.8h2.7v-1.8c0-1.4.3-2.6 1-3.6.6-1 1.5-1.7 2.5-2.2 1-.5 2.3-.8 3.6-.8 1.3 0 2.6.3 4 .8l-1 4.3c-.3 0-.7 0-1-.2l-1.3-.2c-.7 0-1.2.2-1.6.6zm20.3 3.5c1.6.8 2.8 2 3.7 3.4 1 1.6 1.3 3.3 1.3 5.3s-.4 3.7-1.3 5.2c-1 1.5-2 2.6-3.7 3.5-1.5.8-3.3 1.2-5.4 1.2-2 0-4-.4-5.5-1.2-1.6-1-2.8-2-3.7-3.5-.8-1.5-1.3-3.2-1.3-5.2s.5-3.7 1.3-5.2c1-1.4 2-2.5 3.7-3.3 1.6-.8 3.4-1.2 5.4-1.2 2 0 3.8.4 5.3 1.2zm-9 4.8c-.8 1-1.2 2.3-1.2 4 0 1.5.5 2.8 1.4 3.7 1 1 2 1.5 3.5 1.5 1.3 0 2.5-.5 3.4-1.5 1-1 1.4-2.2 1.4-3.8 0-1.6-.5-3-1.4-4-1-.8-2-1.3-3.5-1.3s-2.7.6-3.6 1.5zm24.8-5c1.2-.7 2.5-1 4-1v5h-1c-1.6 0-3 .6-4 1.5-1 1-1.5 2-1.5 3.7V31H163V11.6h5.5V15c.7-1 1.6-2 2.6-2.6zm25.4 17.4l-2.4 1c-1 0-1.8.3-2.7.3-1.8 0-3.2-.6-4.4-1.6-1.2-1-1.8-2.5-1.8-4.4v-9h-2.7v-3.8h2.7V7.2h5.5v5.3h5.3v3.8h-5.3v8c0 1.5.6 2.3 1.8 2.3.8 0 1.7-.3 2.7-.7l1.2 4zm20-16.6c1.2 1.4 2 3.2 2 5.4V31h-5.7V20.5c0-1.3-.3-2.2-1-3-.7-.7-1.6-1-2.8-1-1.5 0-2.6.5-3.4 1.4-.8.8-1.2 2-1.2 3.5V31H199V4.3h5.4V15c1.4-2.3 3.6-3.5 6.7-3.6 2.3 0 4 .7 5.3 2zm21 .8c1.7 1.8 2.5 4.3 2.5 7.5 0 .6 0 1-.2 1.3h-14c.4 1.2 1 2.2 2 3 .8.6 2 1 3 1s2-.3 2.8-.6c.8-.4 1.6-1 2.2-1.6l3 3c-1 1-2.2 2-3.6 2.5-1.4.6-3 1-4.7 1-2 0-4-.5-5.4-1.3-1.4-.8-2.6-2-3.4-3.5-.8-1.5-1.2-3.2-1.2-5 0-2 .4-3.8 1.2-5.3 1-1.5 2-2.7 3.5-3.5 1.7-.8 3.4-1.2 5.3-1.2 3 0 5.5 1 7 2.7zm-2.8 5.5c0-1.2-.4-2.3-1.2-3-.7-.8-1.8-1.2-3-1.2s-2.2.4-3 1.2c-1 .7-1.4 1.7-1.6 3h8.8zm46.2-14h5.8L278 31h-5.8L267 12.8 261.6 31h-5.8l-8.5-25.2h6L259 25l5.3-19.2h5.6l5.4 19.2 5.4-19.2zm20.8 8.5c1.6 1.8 2.4 4.3 2.4 7.5V23h-14c.4 1.2 1 2.2 2 3 .8.6 1.8 1 3 1 1 0 2-.3 2.7-.6.8-.4 1.6-1 2.3-1.6l3 3c-1 1-2.3 2-3.7 2.5-1.4.6-3 1-4.7 1-2 0-3.8-.5-5.3-1.3-1.6-.8-2.7-2-3.6-3.5-.8-1.5-1.2-3.2-1.2-5 0-2 .4-3.8 1.3-5.3.8-1.5 2-2.7 3.5-3.5 1.5-.8 3.2-1.2 5.2-1.2 3 0 5.5 1 7 2.7zm-2.8 5.5c0-1.2-.5-2.3-1.2-3-.8-.8-1.8-1.2-3-1.2-1.3 0-2.3.4-3 1.2-1 .7-1.4 1.7-1.6 3h8.8zm24.5-7c1.3.8 2.4 2 3.2 3.5.7 1.5 1 3.3 1 5.2 0 2-.3 3.7-1 5.2-.8 1.4-1.8 2.6-3.2 3.4-1.3.8-3 1.2-4.7 1.2-1.4 0-2.5-.2-3.6-.8-1-.5-2-1.2-2.6-2.2V31h-5.6V4.3h5.6v10.2c.7-1 1.5-1.8 2.6-2.3 1-.5 2.2-.7 3.5-.7 1.8 0 3.4.4 4.8 1.2zM320.6 25c1-1 1.4-2.2 1.4-3.8 0-1.5-.5-2.8-1.4-3.8-.8-1-2-1.5-3.4-1.5s-2.6.4-3.5 1.4c-1 1-1.3 2.3-1.3 3.8 0 1.7.4 3 1.3 4 1 1 2 1.4 3.5 1.4 1.4 0 2.6-.5 3.4-1.5z"/>
  </g>
</svg>
